<mxfile host="Electron" modified="2024-02-11T17:49:01.061Z" agent="Mozilla/5.0 (Macintosh; Intel Mac OS X 10_15_7) AppleWebKit/537.36 (KHTML, like Gecko) draw.io/23.0.2 Chrome/120.0.6099.109 Electron/28.1.0 Safari/537.36" etag="Go1Bhv5JZ3_5b0x06PVH" version="23.0.2" type="device" pages="3">
  <diagram id="s0m2BOvDRsWtIx2cHYcP" name="governance-request-type">
    <mxGraphModel dx="1242" dy="820" grid="1" gridSize="10" guides="1" tooltips="1" connect="1" arrows="1" fold="1" page="1" pageScale="1" pageWidth="827" pageHeight="1169" math="0" shadow="0">
      <root>
        <mxCell id="0" />
        <mxCell id="1" parent="0" />
        <mxCell id="1anJYZ-0KGzbCDpoCXJO-1" value="Governance Engine" style="rounded=0;whiteSpace=wrap;html=1;verticalAlign=top;fillColor=#fff2cc;strokeColor=#d6b656;" parent="1" vertex="1">
          <mxGeometry x="283.1" y="80" width="300" height="270" as="geometry" />
        </mxCell>
        <mxCell id="1anJYZ-0KGzbCDpoCXJO-2" value="Governance Service" style="rounded=0;whiteSpace=wrap;html=1;" parent="1" vertex="1">
          <mxGeometry x="400" y="130" width="172.1" height="60" as="geometry" />
        </mxCell>
        <mxCell id="1anJYZ-0KGzbCDpoCXJO-3" value="A collection of related&lt;br&gt;governance services." style="text;html=1;resizable=0;points=[];autosize=1;align=left;verticalAlign=top;spacingTop=0;spacingLeft=9;" parent="1" vertex="1">
          <mxGeometry x="665.1" y="94" width="140" height="30" as="geometry" />
        </mxCell>
        <mxCell id="1anJYZ-0KGzbCDpoCXJO-4" value="Implements the behavior of&lt;br&gt;the governance activity.&amp;nbsp;" style="text;html=1;resizable=0;points=[];autosize=1;align=left;verticalAlign=top;spacingTop=0;spacingLeft=9;" parent="1" vertex="1">
          <mxGeometry x="664.1" y="164" width="170" height="30" as="geometry" />
        </mxCell>
        <mxCell id="1anJYZ-0KGzbCDpoCXJO-5" value="" style="shape=flexArrow;endArrow=classic;html=1;fillColor=#dae8fc;fontSize=13;strokeColor=#6c8ebf;entryX=1.007;entryY=0.019;entryDx=0;entryDy=0;entryPerimeter=0;" parent="1" source="1anJYZ-0KGzbCDpoCXJO-7" target="1anJYZ-0KGzbCDpoCXJO-1" edge="1">
          <mxGeometry width="50" height="50" relative="1" as="geometry">
            <mxPoint x="665.0999999999999" y="88" as="sourcePoint" />
            <mxPoint x="605.1" y="85" as="targetPoint" />
          </mxGeometry>
        </mxCell>
        <mxCell id="1anJYZ-0KGzbCDpoCXJO-6" value="" style="shape=flexArrow;endArrow=classic;html=1;fillColor=#dae8fc;fontSize=13;entryX=1;entryY=0.5;entryDx=0;entryDy=0;exitX=-0.033;exitY=0.6;exitDx=0;exitDy=0;exitPerimeter=0;strokeColor=#6c8ebf;" parent="1" source="1anJYZ-0KGzbCDpoCXJO-8" target="1anJYZ-0KGzbCDpoCXJO-2" edge="1">
          <mxGeometry width="50" height="50" relative="1" as="geometry">
            <mxPoint x="712.1" y="229.5" as="sourcePoint" />
            <mxPoint x="573.0999999999999" y="229.5" as="targetPoint" />
          </mxGeometry>
        </mxCell>
        <mxCell id="1anJYZ-0KGzbCDpoCXJO-7" value="Governance Engine" style="text;html=1;resizable=0;points=[];autosize=1;align=left;verticalAlign=top;spacingTop=-4;fontSize=13;fontStyle=5;spacingLeft=9;" parent="1" vertex="1">
          <mxGeometry x="666.1" y="76" width="150" height="20" as="geometry" />
        </mxCell>
        <mxCell id="1anJYZ-0KGzbCDpoCXJO-8" value="Governance Service" style="text;html=1;resizable=0;points=[];autosize=1;align=left;verticalAlign=top;spacingTop=-4;fontSize=13;fontStyle=5;spacingLeft=9;" parent="1" vertex="1">
          <mxGeometry x="665.1" y="148" width="150" height="20" as="geometry" />
        </mxCell>
        <mxCell id="1anJYZ-0KGzbCDpoCXJO-9" style="edgeStyle=orthogonalEdgeStyle;rounded=0;orthogonalLoop=1;jettySize=auto;html=1;exitX=1;exitY=0.5;exitDx=0;exitDy=0;entryX=0;entryY=0.5;entryDx=0;entryDy=0;startArrow=none;startFill=0;endArrow=classic;endFill=1;fontColor=#000000;" parent="1" source="1anJYZ-0KGzbCDpoCXJO-10" target="1anJYZ-0KGzbCDpoCXJO-2" edge="1">
          <mxGeometry relative="1" as="geometry" />
        </mxCell>
        <mxCell id="1anJYZ-0KGzbCDpoCXJO-10" value="Governance&lt;br&gt;Request Type" style="rounded=0;whiteSpace=wrap;html=1;align=center;" parent="1" vertex="1">
          <mxGeometry x="293.1" y="130" width="80" height="60" as="geometry" />
        </mxCell>
        <mxCell id="1anJYZ-0KGzbCDpoCXJO-11" value="A descriptive name for the&lt;br&gt;type of governance activity&lt;br&gt;that the organization wants&lt;br&gt;to run." style="text;html=1;resizable=0;points=[];autosize=1;align=left;verticalAlign=top;spacingTop=0;spacingLeft=9;" parent="1" vertex="1">
          <mxGeometry x="59.99999999999997" y="182" width="170" height="60" as="geometry" />
        </mxCell>
        <mxCell id="1anJYZ-0KGzbCDpoCXJO-12" value="" style="shape=flexArrow;endArrow=classic;html=1;fillColor=#dae8fc;fontSize=13;strokeColor=#6c8ebf;exitX=1.026;exitY=0.55;exitDx=0;exitDy=0;exitPerimeter=0;entryX=0;entryY=0.5;entryDx=0;entryDy=0;" parent="1" source="1anJYZ-0KGzbCDpoCXJO-13" target="1anJYZ-0KGzbCDpoCXJO-10" edge="1">
          <mxGeometry width="50" height="50" relative="1" as="geometry">
            <mxPoint x="49.99999999999997" y="127" as="sourcePoint" />
            <mxPoint x="-76.90000000000012" y="129.98000000000002" as="targetPoint" />
          </mxGeometry>
        </mxCell>
        <mxCell id="1anJYZ-0KGzbCDpoCXJO-13" value="Governance&lt;br&gt;&amp;nbsp;Request Type" style="text;html=1;resizable=0;points=[];autosize=1;align=left;verticalAlign=top;spacingTop=-4;fontSize=13;fontStyle=5;spacingLeft=9;" parent="1" vertex="1">
          <mxGeometry x="59.99999999999997" y="143" width="110" height="30" as="geometry" />
        </mxCell>
        <mxCell id="1anJYZ-0KGzbCDpoCXJO-14" value="Governance Service" style="rounded=0;whiteSpace=wrap;html=1;" parent="1" vertex="1">
          <mxGeometry x="400" y="200" width="172.1" height="60" as="geometry" />
        </mxCell>
        <mxCell id="1anJYZ-0KGzbCDpoCXJO-15" style="edgeStyle=orthogonalEdgeStyle;rounded=0;orthogonalLoop=1;jettySize=auto;html=1;exitX=1;exitY=0.5;exitDx=0;exitDy=0;entryX=0;entryY=0.5;entryDx=0;entryDy=0;startArrow=none;startFill=0;endArrow=classic;endFill=1;fontColor=#000000;" parent="1" source="1anJYZ-0KGzbCDpoCXJO-16" target="1anJYZ-0KGzbCDpoCXJO-14" edge="1">
          <mxGeometry relative="1" as="geometry" />
        </mxCell>
        <mxCell id="1anJYZ-0KGzbCDpoCXJO-16" value="Governance&lt;br&gt;Request Type" style="rounded=0;whiteSpace=wrap;html=1;align=center;" parent="1" vertex="1">
          <mxGeometry x="293.1" y="200" width="80" height="60" as="geometry" />
        </mxCell>
        <mxCell id="1anJYZ-0KGzbCDpoCXJO-17" value="Governance Service" style="rounded=0;whiteSpace=wrap;html=1;" parent="1" vertex="1">
          <mxGeometry x="400" y="270" width="172.1" height="60" as="geometry" />
        </mxCell>
        <mxCell id="1anJYZ-0KGzbCDpoCXJO-18" style="edgeStyle=orthogonalEdgeStyle;rounded=0;orthogonalLoop=1;jettySize=auto;html=1;exitX=1;exitY=0.5;exitDx=0;exitDy=0;entryX=0;entryY=0.5;entryDx=0;entryDy=0;startArrow=none;startFill=0;endArrow=classic;endFill=1;fontColor=#000000;" parent="1" source="1anJYZ-0KGzbCDpoCXJO-19" target="1anJYZ-0KGzbCDpoCXJO-17" edge="1">
          <mxGeometry relative="1" as="geometry" />
        </mxCell>
        <mxCell id="1anJYZ-0KGzbCDpoCXJO-19" value="Governance&lt;br&gt;Request Type" style="rounded=0;whiteSpace=wrap;html=1;align=center;" parent="1" vertex="1">
          <mxGeometry x="293.1" y="270" width="80" height="60" as="geometry" />
        </mxCell>
      </root>
    </mxGraphModel>
  </diagram>
  <diagram id="GuL5lkJkcGG65F6ePJ_E" name="integration-groups">
    <mxGraphModel dx="1242" dy="820" grid="1" gridSize="10" guides="1" tooltips="1" connect="1" arrows="1" fold="1" page="1" pageScale="1" pageWidth="1169" pageHeight="827" math="0" shadow="0">
      <root>
        <mxCell id="0" />
        <mxCell id="1" parent="0" />
        <mxCell id="_EKkeDNSDIjQ5oHw3rTO-1" style="edgeStyle=orthogonalEdgeStyle;rounded=0;orthogonalLoop=1;jettySize=auto;html=1;exitX=0.5;exitY=1;exitDx=0;exitDy=0;entryX=0;entryY=0.5;entryDx=0;entryDy=0;" parent="1" source="_EKkeDNSDIjQ5oHw3rTO-3" target="_EKkeDNSDIjQ5oHw3rTO-4" edge="1">
          <mxGeometry relative="1" as="geometry" />
        </mxCell>
        <mxCell id="_EKkeDNSDIjQ5oHw3rTO-2" style="edgeStyle=orthogonalEdgeStyle;rounded=0;orthogonalLoop=1;jettySize=auto;html=1;fontSize=50;" parent="1" source="_EKkeDNSDIjQ5oHw3rTO-3" target="_EKkeDNSDIjQ5oHw3rTO-7" edge="1">
          <mxGeometry relative="1" as="geometry">
            <mxPoint x="510" y="135" as="targetPoint" />
          </mxGeometry>
        </mxCell>
        <mxCell id="_EKkeDNSDIjQ5oHw3rTO-3" value="Integration&lt;br&gt;Connector" style="rounded=0;whiteSpace=wrap;html=1;shadow=0;fillColor=#d5e8d4;strokeColor=#82b366;" parent="1" vertex="1">
          <mxGeometry x="330" y="105" width="120" height="60" as="geometry" />
        </mxCell>
        <mxCell id="_EKkeDNSDIjQ5oHw3rTO-4" value="Open Metadata&lt;br&gt;Elements" style="rounded=0;whiteSpace=wrap;html=1;shadow=0;fillColor=#fff2cc;strokeColor=#d6b656;" parent="1" vertex="1">
          <mxGeometry x="510" y="215" width="120" height="60" as="geometry" />
        </mxCell>
        <mxCell id="_EKkeDNSDIjQ5oHw3rTO-7" value="Connection" style="rounded=0;whiteSpace=wrap;html=1;shadow=0;fillColor=#dae8fc;strokeColor=#6c8ebf;" parent="1" vertex="1">
          <mxGeometry x="630" y="105" width="120" height="60" as="geometry" />
        </mxCell>
        <mxCell id="_EKkeDNSDIjQ5oHw3rTO-10" style="edgeStyle=orthogonalEdgeStyle;rounded=0;orthogonalLoop=1;jettySize=auto;html=1;entryX=0;entryY=0.5;entryDx=0;entryDy=0;" parent="1" source="_EKkeDNSDIjQ5oHw3rTO-11" target="_EKkeDNSDIjQ5oHw3rTO-3" edge="1">
          <mxGeometry relative="1" as="geometry" />
        </mxCell>
        <mxCell id="_EKkeDNSDIjQ5oHw3rTO-11" value="Integration Group" style="rounded=0;whiteSpace=wrap;html=1;shadow=0;fillColor=#d5e8d4;strokeColor=#82b366;" parent="1" vertex="1">
          <mxGeometry x="50" y="105" width="180" height="60" as="geometry" />
        </mxCell>
        <mxCell id="_EKkeDNSDIjQ5oHw3rTO-12" value="CatalogTarget" style="text;html=1;align=center;verticalAlign=middle;resizable=0;points=[];autosize=1;strokeColor=none;fillColor=none;" parent="1" vertex="1">
          <mxGeometry x="290" y="200" width="100" height="30" as="geometry" />
        </mxCell>
        <mxCell id="_EKkeDNSDIjQ5oHw3rTO-13" style="edgeStyle=orthogonalEdgeStyle;rounded=0;orthogonalLoop=1;jettySize=auto;html=1;exitX=0.5;exitY=1;exitDx=0;exitDy=0;entryX=0;entryY=0.5;entryDx=0;entryDy=0;" parent="1" source="_EKkeDNSDIjQ5oHw3rTO-15" target="_EKkeDNSDIjQ5oHw3rTO-16" edge="1">
          <mxGeometry relative="1" as="geometry" />
        </mxCell>
        <mxCell id="_EKkeDNSDIjQ5oHw3rTO-14" style="edgeStyle=orthogonalEdgeStyle;rounded=0;orthogonalLoop=1;jettySize=auto;html=1;fontSize=50;" parent="1" source="_EKkeDNSDIjQ5oHw3rTO-15" target="_EKkeDNSDIjQ5oHw3rTO-19" edge="1">
          <mxGeometry relative="1" as="geometry">
            <mxPoint x="530" y="145" as="targetPoint" />
          </mxGeometry>
        </mxCell>
        <mxCell id="_EKkeDNSDIjQ5oHw3rTO-15" value="Integration&lt;br&gt;Connector" style="rounded=0;whiteSpace=wrap;html=1;shadow=0;fillColor=#d5e8d4;strokeColor=#82b366;" parent="1" vertex="1">
          <mxGeometry x="350" y="115" width="120" height="60" as="geometry" />
        </mxCell>
        <mxCell id="_EKkeDNSDIjQ5oHw3rTO-16" value="Open Metadata&lt;br&gt;Element" style="rounded=0;whiteSpace=wrap;html=1;shadow=0;fillColor=#fff2cc;strokeColor=#d6b656;" parent="1" vertex="1">
          <mxGeometry x="530" y="225" width="120" height="60" as="geometry" />
        </mxCell>
        <mxCell id="_EKkeDNSDIjQ5oHw3rTO-19" value="Connection" style="rounded=0;whiteSpace=wrap;html=1;shadow=0;fillColor=#dae8fc;strokeColor=#6c8ebf;" parent="1" vertex="1">
          <mxGeometry x="650" y="115" width="120" height="60" as="geometry" />
        </mxCell>
        <mxCell id="_EKkeDNSDIjQ5oHw3rTO-22" style="edgeStyle=orthogonalEdgeStyle;rounded=0;orthogonalLoop=1;jettySize=auto;html=1;entryX=0;entryY=0.5;entryDx=0;entryDy=0;exitX=1;exitY=0.5;exitDx=0;exitDy=0;" parent="1" source="_EKkeDNSDIjQ5oHw3rTO-11" target="_EKkeDNSDIjQ5oHw3rTO-15" edge="1">
          <mxGeometry relative="1" as="geometry">
            <mxPoint x="230" y="140" as="sourcePoint" />
          </mxGeometry>
        </mxCell>
        <mxCell id="_EKkeDNSDIjQ5oHw3rTO-28" style="edgeStyle=orthogonalEdgeStyle;rounded=0;orthogonalLoop=1;jettySize=auto;html=1;exitX=1;exitY=0.5;exitDx=0;exitDy=0;startArrow=classic;startFill=1;" parent="1" source="_EKkeDNSDIjQ5oHw3rTO-24" target="_EKkeDNSDIjQ5oHw3rTO-25" edge="1">
          <mxGeometry relative="1" as="geometry" />
        </mxCell>
        <mxCell id="_EKkeDNSDIjQ5oHw3rTO-24" value="Integration&lt;br&gt;Daemon" style="rounded=0;whiteSpace=wrap;html=1;fillColor=#d5e8d4;strokeColor=#82b366;shadow=1;verticalAlign=top;" parent="1" vertex="1">
          <mxGeometry x="170" y="380" width="120" height="126" as="geometry" />
        </mxCell>
        <mxCell id="_EKkeDNSDIjQ5oHw3rTO-27" style="edgeStyle=orthogonalEdgeStyle;rounded=0;orthogonalLoop=1;jettySize=auto;html=1;exitX=0.5;exitY=1;exitDx=0;exitDy=0;startArrow=classic;startFill=1;" parent="1" source="_EKkeDNSDIjQ5oHw3rTO-25" target="_EKkeDNSDIjQ5oHw3rTO-26" edge="1">
          <mxGeometry relative="1" as="geometry" />
        </mxCell>
        <mxCell id="_EKkeDNSDIjQ5oHw3rTO-30" style="edgeStyle=orthogonalEdgeStyle;rounded=0;orthogonalLoop=1;jettySize=auto;html=1;exitX=1;exitY=0.5;exitDx=0;exitDy=0;entryX=0;entryY=0.5;entryDx=0;entryDy=0;startArrow=classic;startFill=1;" parent="1" source="_EKkeDNSDIjQ5oHw3rTO-25" target="_EKkeDNSDIjQ5oHw3rTO-29" edge="1">
          <mxGeometry relative="1" as="geometry" />
        </mxCell>
        <mxCell id="_EKkeDNSDIjQ5oHw3rTO-25" value="Metadata Access Server" style="rounded=0;whiteSpace=wrap;html=1;shadow=1;fillColor=#fff2cc;strokeColor=#d6b656;" parent="1" vertex="1">
          <mxGeometry x="380" y="413" width="120" height="60" as="geometry" />
        </mxCell>
        <mxCell id="_EKkeDNSDIjQ5oHw3rTO-26" value="" style="shape=cylinder3;whiteSpace=wrap;html=1;boundedLbl=1;backgroundOutline=1;size=8.5;shadow=1;fillColor=#fff2cc;strokeColor=#d6b656;" parent="1" vertex="1">
          <mxGeometry x="410" y="509" width="60" height="50" as="geometry" />
        </mxCell>
        <mxCell id="_EKkeDNSDIjQ5oHw3rTO-29" value="Cohort" style="ellipse;whiteSpace=wrap;html=1;shadow=1;" parent="1" vertex="1">
          <mxGeometry x="560" y="413" width="100" height="60" as="geometry" />
        </mxCell>
        <mxCell id="_EKkeDNSDIjQ5oHw3rTO-31" value="Integration&lt;br&gt;Connectors" style="rounded=1;whiteSpace=wrap;html=1;shadow=1;" parent="1" vertex="1">
          <mxGeometry x="180" y="430" width="90" height="50" as="geometry" />
        </mxCell>
        <mxCell id="_EKkeDNSDIjQ5oHw3rTO-32" value="Integration&lt;br&gt;Connectors" style="rounded=1;whiteSpace=wrap;html=1;shadow=1;" parent="1" vertex="1">
          <mxGeometry x="190" y="440" width="90" height="50" as="geometry" />
        </mxCell>
        <mxCell id="aL-exAcBVc-EPzbjJFL1-9" style="edgeStyle=orthogonalEdgeStyle;rounded=0;orthogonalLoop=1;jettySize=auto;html=1;exitX=0.5;exitY=1;exitDx=0;exitDy=0;entryX=0;entryY=0.5;entryDx=0;entryDy=0;" parent="1" source="aL-exAcBVc-EPzbjJFL1-137" target="aL-exAcBVc-EPzbjJFL1-12" edge="1">
          <mxGeometry relative="1" as="geometry">
            <mxPoint x="310" y="1710" as="sourcePoint" />
          </mxGeometry>
        </mxCell>
        <mxCell id="aL-exAcBVc-EPzbjJFL1-23" style="edgeStyle=orthogonalEdgeStyle;rounded=0;orthogonalLoop=1;jettySize=auto;html=1;exitX=1;exitY=0.5;exitDx=0;exitDy=0;fillColor=#fff2cc;strokeColor=#d6b656;" parent="1" source="aL-exAcBVc-EPzbjJFL1-12" target="aL-exAcBVc-EPzbjJFL1-20" edge="1">
          <mxGeometry relative="1" as="geometry" />
        </mxCell>
        <mxCell id="aL-exAcBVc-EPzbjJFL1-12" value="Open Metadata&lt;br&gt;Element" style="rounded=0;whiteSpace=wrap;html=1;shadow=0;fillColor=#fff2cc;strokeColor=#d6b656;" parent="1" vertex="1">
          <mxGeometry x="440" y="1760" width="120" height="60" as="geometry" />
        </mxCell>
        <mxCell id="aL-exAcBVc-EPzbjJFL1-18" style="edgeStyle=orthogonalEdgeStyle;rounded=0;orthogonalLoop=1;jettySize=auto;html=1;exitX=1;exitY=0.25;exitDx=0;exitDy=0;fillColor=#fff2cc;strokeColor=#d6b656;" parent="1" source="aL-exAcBVc-EPzbjJFL1-20" target="aL-exAcBVc-EPzbjJFL1-21" edge="1">
          <mxGeometry relative="1" as="geometry" />
        </mxCell>
        <mxCell id="aL-exAcBVc-EPzbjJFL1-19" style="edgeStyle=orthogonalEdgeStyle;rounded=0;orthogonalLoop=1;jettySize=auto;html=1;exitX=1;exitY=0.75;exitDx=0;exitDy=0;entryX=0;entryY=0.5;entryDx=0;entryDy=0;fillColor=#fff2cc;strokeColor=#d6b656;" parent="1" source="aL-exAcBVc-EPzbjJFL1-20" target="aL-exAcBVc-EPzbjJFL1-22" edge="1">
          <mxGeometry relative="1" as="geometry" />
        </mxCell>
        <mxCell id="aL-exAcBVc-EPzbjJFL1-20" value="Connection" style="rounded=0;whiteSpace=wrap;html=1;shadow=0;fillColor=#fff2cc;strokeColor=#d6b656;" parent="1" vertex="1">
          <mxGeometry x="620" y="1760" width="120" height="60" as="geometry" />
        </mxCell>
        <mxCell id="aL-exAcBVc-EPzbjJFL1-21" value="Connector Type" style="rounded=0;whiteSpace=wrap;html=1;shadow=0;fillColor=#fff2cc;strokeColor=#d6b656;" parent="1" vertex="1">
          <mxGeometry x="810" y="1745" width="120" height="60" as="geometry" />
        </mxCell>
        <mxCell id="aL-exAcBVc-EPzbjJFL1-22" value="Endpoint" style="rounded=0;whiteSpace=wrap;html=1;shadow=0;fillColor=#fff2cc;strokeColor=#d6b656;" parent="1" vertex="1">
          <mxGeometry x="810" y="1825" width="120" height="60" as="geometry" />
        </mxCell>
        <mxCell id="aL-exAcBVc-EPzbjJFL1-24" style="edgeStyle=orthogonalEdgeStyle;rounded=0;orthogonalLoop=1;jettySize=auto;html=1;exitX=0.5;exitY=1;exitDx=0;exitDy=0;entryX=0;entryY=0.5;entryDx=0;entryDy=0;" parent="1" source="aL-exAcBVc-EPzbjJFL1-26" target="aL-exAcBVc-EPzbjJFL1-28" edge="1">
          <mxGeometry relative="1" as="geometry" />
        </mxCell>
        <mxCell id="aL-exAcBVc-EPzbjJFL1-25" style="edgeStyle=orthogonalEdgeStyle;rounded=0;orthogonalLoop=1;jettySize=auto;html=1;fontSize=50;" parent="1" source="aL-exAcBVc-EPzbjJFL1-26" target="aL-exAcBVc-EPzbjJFL1-30" edge="1">
          <mxGeometry relative="1" as="geometry">
            <mxPoint x="450" y="1990" as="targetPoint" />
          </mxGeometry>
        </mxCell>
        <mxCell id="aL-exAcBVc-EPzbjJFL1-26" value="Integration Connector&lt;br&gt;(description of the integration connector)" style="rounded=0;whiteSpace=wrap;html=1;shadow=0;fillColor=#d5e8d4;strokeColor=#82b366;" parent="1" vertex="1">
          <mxGeometry x="240" y="1960" width="150" height="60" as="geometry" />
        </mxCell>
        <mxCell id="aL-exAcBVc-EPzbjJFL1-27" style="edgeStyle=orthogonalEdgeStyle;rounded=0;orthogonalLoop=1;jettySize=auto;html=1;exitX=1;exitY=0.5;exitDx=0;exitDy=0;fillColor=#fff2cc;strokeColor=#d6b656;" parent="1" source="aL-exAcBVc-EPzbjJFL1-28" target="aL-exAcBVc-EPzbjJFL1-34" edge="1">
          <mxGeometry relative="1" as="geometry" />
        </mxCell>
        <mxCell id="aL-exAcBVc-EPzbjJFL1-28" value="DataFolder&lt;br&gt;(asset describing the directory)" style="rounded=0;whiteSpace=wrap;html=1;shadow=0;fillColor=#fff2cc;strokeColor=#d6b656;" parent="1" vertex="1">
          <mxGeometry x="450" y="2070" width="120" height="60" as="geometry" />
        </mxCell>
        <mxCell id="aL-exAcBVc-EPzbjJFL1-29" style="edgeStyle=orthogonalEdgeStyle;rounded=0;orthogonalLoop=1;jettySize=auto;html=1;exitX=1;exitY=0.5;exitDx=0;exitDy=0;fillColor=#dae8fc;strokeColor=#6c8ebf;" parent="1" source="aL-exAcBVc-EPzbjJFL1-30" target="aL-exAcBVc-EPzbjJFL1-31" edge="1">
          <mxGeometry relative="1" as="geometry" />
        </mxCell>
        <mxCell id="aL-exAcBVc-EPzbjJFL1-30" value="Connection &lt;br&gt;(for the integration connector)" style="rounded=0;whiteSpace=wrap;html=1;shadow=0;fillColor=#dae8fc;strokeColor=#6c8ebf;" parent="1" vertex="1">
          <mxGeometry x="450" y="1960" width="120" height="60" as="geometry" />
        </mxCell>
        <mxCell id="aL-exAcBVc-EPzbjJFL1-31" value="Connector Type&lt;br&gt;(for the integration connector)" style="rounded=0;whiteSpace=wrap;html=1;shadow=0;fillColor=#dae8fc;strokeColor=#6c8ebf;" parent="1" vertex="1">
          <mxGeometry x="640" y="1960" width="120" height="60" as="geometry" />
        </mxCell>
        <mxCell id="aL-exAcBVc-EPzbjJFL1-32" style="edgeStyle=orthogonalEdgeStyle;rounded=0;orthogonalLoop=1;jettySize=auto;html=1;exitX=1;exitY=0.25;exitDx=0;exitDy=0;fillColor=#fff2cc;strokeColor=#d6b656;" parent="1" source="aL-exAcBVc-EPzbjJFL1-34" target="aL-exAcBVc-EPzbjJFL1-35" edge="1">
          <mxGeometry relative="1" as="geometry" />
        </mxCell>
        <mxCell id="aL-exAcBVc-EPzbjJFL1-33" style="edgeStyle=orthogonalEdgeStyle;rounded=0;orthogonalLoop=1;jettySize=auto;html=1;exitX=1;exitY=0.75;exitDx=0;exitDy=0;entryX=0;entryY=0.5;entryDx=0;entryDy=0;fillColor=#fff2cc;strokeColor=#d6b656;" parent="1" source="aL-exAcBVc-EPzbjJFL1-34" target="aL-exAcBVc-EPzbjJFL1-36" edge="1">
          <mxGeometry relative="1" as="geometry" />
        </mxCell>
        <mxCell id="aL-exAcBVc-EPzbjJFL1-34" value="Connection (connection for the directory)&amp;nbsp;" style="rounded=0;whiteSpace=wrap;html=1;shadow=0;fillColor=#fff2cc;strokeColor=#d6b656;" parent="1" vertex="1">
          <mxGeometry x="640" y="2070" width="120" height="60" as="geometry" />
        </mxCell>
        <mxCell id="aL-exAcBVc-EPzbjJFL1-35" value="Connector Type&lt;br&gt;(to access a directory)" style="rounded=0;whiteSpace=wrap;html=1;shadow=0;fillColor=#fff2cc;strokeColor=#d6b656;" parent="1" vertex="1">
          <mxGeometry x="830" y="2055" width="120" height="60" as="geometry" />
        </mxCell>
        <mxCell id="aL-exAcBVc-EPzbjJFL1-36" value="Endpoint&lt;br&gt;(directory path name)" style="rounded=0;whiteSpace=wrap;html=1;shadow=0;fillColor=#fff2cc;strokeColor=#d6b656;" parent="1" vertex="1">
          <mxGeometry x="830" y="2135" width="120" height="60" as="geometry" />
        </mxCell>
        <mxCell id="aL-exAcBVc-EPzbjJFL1-38" value="Catalog Target" style="text;html=1;align=center;verticalAlign=middle;resizable=0;points=[];autosize=1;strokeColor=none;fillColor=none;" parent="1" vertex="1">
          <mxGeometry x="330" y="2070" width="100" height="30" as="geometry" />
        </mxCell>
        <mxCell id="aL-exAcBVc-EPzbjJFL1-41" value="Integration&lt;br&gt;Connector" style="rounded=0;whiteSpace=wrap;html=1;shadow=0;fillColor=#d5e8d4;strokeColor=#82b366;" parent="1" vertex="1">
          <mxGeometry x="266" y="665" width="120" height="60" as="geometry" />
        </mxCell>
        <mxCell id="aL-exAcBVc-EPzbjJFL1-42" style="edgeStyle=orthogonalEdgeStyle;rounded=0;orthogonalLoop=1;jettySize=auto;html=1;exitX=1;exitY=0.5;exitDx=0;exitDy=0;" parent="1" source="aL-exAcBVc-EPzbjJFL1-41" target="aL-exAcBVc-EPzbjJFL1-49" edge="1">
          <mxGeometry relative="1" as="geometry">
            <mxPoint x="386" y="692" as="sourcePoint" />
          </mxGeometry>
        </mxCell>
        <mxCell id="aL-exAcBVc-EPzbjJFL1-47" style="edgeStyle=orthogonalEdgeStyle;rounded=0;orthogonalLoop=1;jettySize=auto;html=1;exitX=1;exitY=0.25;exitDx=0;exitDy=0;" parent="1" source="aL-exAcBVc-EPzbjJFL1-49" target="aL-exAcBVc-EPzbjJFL1-50" edge="1">
          <mxGeometry relative="1" as="geometry" />
        </mxCell>
        <mxCell id="aL-exAcBVc-EPzbjJFL1-48" style="edgeStyle=orthogonalEdgeStyle;rounded=0;orthogonalLoop=1;jettySize=auto;html=1;exitX=1;exitY=0.75;exitDx=0;exitDy=0;entryX=0;entryY=0.5;entryDx=0;entryDy=0;" parent="1" source="aL-exAcBVc-EPzbjJFL1-49" target="aL-exAcBVc-EPzbjJFL1-51" edge="1">
          <mxGeometry relative="1" as="geometry" />
        </mxCell>
        <mxCell id="aL-exAcBVc-EPzbjJFL1-49" value="Connection" style="rounded=0;whiteSpace=wrap;html=1;shadow=0;fillColor=#dae8fc;strokeColor=#6c8ebf;" parent="1" vertex="1">
          <mxGeometry x="440" y="665" width="120" height="60" as="geometry" />
        </mxCell>
        <mxCell id="aL-exAcBVc-EPzbjJFL1-50" value="Connector Type" style="rounded=0;whiteSpace=wrap;html=1;shadow=0;fillColor=#dae8fc;strokeColor=#6c8ebf;" parent="1" vertex="1">
          <mxGeometry x="630" y="650" width="120" height="60" as="geometry" />
        </mxCell>
        <mxCell id="aL-exAcBVc-EPzbjJFL1-51" value="Endpoint" style="rounded=0;whiteSpace=wrap;html=1;shadow=0;fillColor=#fad7ac;strokeColor=#b46504;" parent="1" vertex="1">
          <mxGeometry x="630" y="730" width="120" height="60" as="geometry" />
        </mxCell>
        <mxCell id="aL-exAcBVc-EPzbjJFL1-52" value="Integration&lt;br&gt;Connector" style="rounded=0;whiteSpace=wrap;html=1;shadow=0;fillColor=#d5e8d4;strokeColor=#82b366;" parent="1" vertex="1">
          <mxGeometry x="266" y="905" width="120" height="60" as="geometry" />
        </mxCell>
        <mxCell id="aL-exAcBVc-EPzbjJFL1-53" style="edgeStyle=orthogonalEdgeStyle;rounded=0;orthogonalLoop=1;jettySize=auto;html=1;exitX=1;exitY=0.5;exitDx=0;exitDy=0;" parent="1" source="aL-exAcBVc-EPzbjJFL1-52" target="aL-exAcBVc-EPzbjJFL1-56" edge="1">
          <mxGeometry relative="1" as="geometry">
            <mxPoint x="386" y="932" as="sourcePoint" />
          </mxGeometry>
        </mxCell>
        <mxCell id="aL-exAcBVc-EPzbjJFL1-54" style="edgeStyle=orthogonalEdgeStyle;rounded=0;orthogonalLoop=1;jettySize=auto;html=1;exitX=1;exitY=0.25;exitDx=0;exitDy=0;" parent="1" source="aL-exAcBVc-EPzbjJFL1-56" target="aL-exAcBVc-EPzbjJFL1-57" edge="1">
          <mxGeometry relative="1" as="geometry" />
        </mxCell>
        <mxCell id="aL-exAcBVc-EPzbjJFL1-55" style="edgeStyle=orthogonalEdgeStyle;rounded=0;orthogonalLoop=1;jettySize=auto;html=1;exitX=1;exitY=0.75;exitDx=0;exitDy=0;entryX=0;entryY=0.5;entryDx=0;entryDy=0;" parent="1" source="aL-exAcBVc-EPzbjJFL1-56" target="aL-exAcBVc-EPzbjJFL1-58" edge="1">
          <mxGeometry relative="1" as="geometry" />
        </mxCell>
        <mxCell id="aL-exAcBVc-EPzbjJFL1-64" style="edgeStyle=orthogonalEdgeStyle;rounded=0;orthogonalLoop=1;jettySize=auto;html=1;exitX=0.5;exitY=1;exitDx=0;exitDy=0;entryX=0;entryY=0.5;entryDx=0;entryDy=0;" parent="1" source="aL-exAcBVc-EPzbjJFL1-56" target="aL-exAcBVc-EPzbjJFL1-61" edge="1">
          <mxGeometry relative="1" as="geometry" />
        </mxCell>
        <mxCell id="aL-exAcBVc-EPzbjJFL1-56" value="VirtualConnection" style="rounded=0;whiteSpace=wrap;html=1;shadow=0;fillColor=#dae8fc;strokeColor=#6c8ebf;" parent="1" vertex="1">
          <mxGeometry x="440" y="905" width="120" height="60" as="geometry" />
        </mxCell>
        <mxCell id="aL-exAcBVc-EPzbjJFL1-57" value="Connector Type" style="rounded=0;whiteSpace=wrap;html=1;shadow=0;fillColor=#dae8fc;strokeColor=#6c8ebf;" parent="1" vertex="1">
          <mxGeometry x="630" y="890" width="120" height="60" as="geometry" />
        </mxCell>
        <mxCell id="aL-exAcBVc-EPzbjJFL1-58" value="Endpoint" style="rounded=0;whiteSpace=wrap;html=1;shadow=0;fillColor=#fad7ac;strokeColor=#b46504;" parent="1" vertex="1">
          <mxGeometry x="630" y="970" width="120" height="60" as="geometry" />
        </mxCell>
        <mxCell id="aL-exAcBVc-EPzbjJFL1-59" style="edgeStyle=orthogonalEdgeStyle;rounded=0;orthogonalLoop=1;jettySize=auto;html=1;exitX=1;exitY=0.25;exitDx=0;exitDy=0;" parent="1" source="aL-exAcBVc-EPzbjJFL1-61" target="aL-exAcBVc-EPzbjJFL1-62" edge="1">
          <mxGeometry relative="1" as="geometry" />
        </mxCell>
        <mxCell id="aL-exAcBVc-EPzbjJFL1-60" style="edgeStyle=orthogonalEdgeStyle;rounded=0;orthogonalLoop=1;jettySize=auto;html=1;exitX=1;exitY=0.75;exitDx=0;exitDy=0;entryX=0;entryY=0.5;entryDx=0;entryDy=0;" parent="1" source="aL-exAcBVc-EPzbjJFL1-61" target="aL-exAcBVc-EPzbjJFL1-63" edge="1">
          <mxGeometry relative="1" as="geometry" />
        </mxCell>
        <mxCell id="aL-exAcBVc-EPzbjJFL1-61" value="Connection" style="rounded=0;whiteSpace=wrap;html=1;shadow=0;fillColor=#dae8fc;strokeColor=#6c8ebf;" parent="1" vertex="1">
          <mxGeometry x="560" y="1065" width="120" height="60" as="geometry" />
        </mxCell>
        <mxCell id="aL-exAcBVc-EPzbjJFL1-62" value="Connector Type" style="rounded=0;whiteSpace=wrap;html=1;shadow=0;fillColor=#dae8fc;strokeColor=#6c8ebf;" parent="1" vertex="1">
          <mxGeometry x="750" y="1050" width="120" height="60" as="geometry" />
        </mxCell>
        <mxCell id="aL-exAcBVc-EPzbjJFL1-63" value="Endpoint" style="rounded=0;whiteSpace=wrap;html=1;shadow=0;fillColor=#fad7ac;strokeColor=#b46504;" parent="1" vertex="1">
          <mxGeometry x="750" y="1130" width="120" height="60" as="geometry" />
        </mxCell>
        <mxCell id="aL-exAcBVc-EPzbjJFL1-65" value="EmbeddedConnection" style="text;html=1;align=center;verticalAlign=middle;resizable=0;points=[];autosize=1;strokeColor=none;fillColor=none;" parent="1" vertex="1">
          <mxGeometry x="360" y="980" width="140" height="30" as="geometry" />
        </mxCell>
        <mxCell id="aL-exAcBVc-EPzbjJFL1-66" value="Integration&lt;br&gt;Connector" style="rounded=0;whiteSpace=wrap;html=1;shadow=0;fillColor=#d5e8d4;strokeColor=#82b366;" parent="1" vertex="1">
          <mxGeometry x="250" y="1265" width="120" height="60" as="geometry" />
        </mxCell>
        <mxCell id="aL-exAcBVc-EPzbjJFL1-67" style="edgeStyle=orthogonalEdgeStyle;rounded=0;orthogonalLoop=1;jettySize=auto;html=1;exitX=1;exitY=0.5;exitDx=0;exitDy=0;" parent="1" source="aL-exAcBVc-EPzbjJFL1-66" target="aL-exAcBVc-EPzbjJFL1-71" edge="1">
          <mxGeometry relative="1" as="geometry">
            <mxPoint x="370" y="1292" as="sourcePoint" />
          </mxGeometry>
        </mxCell>
        <mxCell id="aL-exAcBVc-EPzbjJFL1-68" style="edgeStyle=orthogonalEdgeStyle;rounded=0;orthogonalLoop=1;jettySize=auto;html=1;exitX=1;exitY=0.25;exitDx=0;exitDy=0;" parent="1" source="aL-exAcBVc-EPzbjJFL1-71" target="aL-exAcBVc-EPzbjJFL1-72" edge="1">
          <mxGeometry relative="1" as="geometry" />
        </mxCell>
        <mxCell id="aL-exAcBVc-EPzbjJFL1-69" style="edgeStyle=orthogonalEdgeStyle;rounded=0;orthogonalLoop=1;jettySize=auto;html=1;exitX=1;exitY=0.75;exitDx=0;exitDy=0;entryX=0;entryY=0.5;entryDx=0;entryDy=0;" parent="1" source="aL-exAcBVc-EPzbjJFL1-71" target="aL-exAcBVc-EPzbjJFL1-73" edge="1">
          <mxGeometry relative="1" as="geometry" />
        </mxCell>
        <mxCell id="aL-exAcBVc-EPzbjJFL1-70" style="edgeStyle=orthogonalEdgeStyle;rounded=0;orthogonalLoop=1;jettySize=auto;html=1;exitX=0.5;exitY=1;exitDx=0;exitDy=0;entryX=0;entryY=0.5;entryDx=0;entryDy=0;" parent="1" source="aL-exAcBVc-EPzbjJFL1-71" target="aL-exAcBVc-EPzbjJFL1-76" edge="1">
          <mxGeometry relative="1" as="geometry" />
        </mxCell>
        <mxCell id="aL-exAcBVc-EPzbjJFL1-71" value="VirtualConnection&lt;br&gt;(for the integration connector)" style="rounded=0;whiteSpace=wrap;html=1;shadow=0;fillColor=#dae8fc;strokeColor=#6c8ebf;" parent="1" vertex="1">
          <mxGeometry x="424" y="1265" width="120" height="60" as="geometry" />
        </mxCell>
        <mxCell id="aL-exAcBVc-EPzbjJFL1-72" value="Connector Type&lt;br&gt;(for the integration connector)" style="rounded=0;whiteSpace=wrap;html=1;shadow=0;fillColor=#dae8fc;strokeColor=#6c8ebf;" parent="1" vertex="1">
          <mxGeometry x="614" y="1250" width="120" height="60" as="geometry" />
        </mxCell>
        <mxCell id="aL-exAcBVc-EPzbjJFL1-73" value="Endpoint&lt;br&gt;(for the integration connector)" style="rounded=0;whiteSpace=wrap;html=1;shadow=0;fillColor=#fad7ac;strokeColor=#b46504;" parent="1" vertex="1">
          <mxGeometry x="614" y="1330" width="120" height="60" as="geometry" />
        </mxCell>
        <mxCell id="aL-exAcBVc-EPzbjJFL1-74" style="edgeStyle=orthogonalEdgeStyle;rounded=0;orthogonalLoop=1;jettySize=auto;html=1;exitX=1;exitY=0.25;exitDx=0;exitDy=0;" parent="1" source="aL-exAcBVc-EPzbjJFL1-76" target="aL-exAcBVc-EPzbjJFL1-77" edge="1">
          <mxGeometry relative="1" as="geometry" />
        </mxCell>
        <mxCell id="aL-exAcBVc-EPzbjJFL1-75" style="edgeStyle=orthogonalEdgeStyle;rounded=0;orthogonalLoop=1;jettySize=auto;html=1;exitX=1;exitY=0.75;exitDx=0;exitDy=0;entryX=0;entryY=0.5;entryDx=0;entryDy=0;" parent="1" source="aL-exAcBVc-EPzbjJFL1-76" target="aL-exAcBVc-EPzbjJFL1-78" edge="1">
          <mxGeometry relative="1" as="geometry" />
        </mxCell>
        <mxCell id="aL-exAcBVc-EPzbjJFL1-76" value="Connection&lt;br&gt;(for the secret store)" style="rounded=0;whiteSpace=wrap;html=1;shadow=0;fillColor=#dae8fc;strokeColor=#6c8ebf;" parent="1" vertex="1">
          <mxGeometry x="544" y="1425" width="120" height="60" as="geometry" />
        </mxCell>
        <mxCell id="aL-exAcBVc-EPzbjJFL1-77" value="Connector Type&lt;br&gt;(for the secret store)" style="rounded=0;whiteSpace=wrap;html=1;shadow=0;fillColor=#dae8fc;strokeColor=#6c8ebf;" parent="1" vertex="1">
          <mxGeometry x="734" y="1410" width="120" height="60" as="geometry" />
        </mxCell>
        <mxCell id="aL-exAcBVc-EPzbjJFL1-78" value="Endpoint&lt;br&gt;(for the secret store)" style="rounded=0;whiteSpace=wrap;html=1;shadow=0;fillColor=#fad7ac;strokeColor=#b46504;" parent="1" vertex="1">
          <mxGeometry x="734" y="1490" width="120" height="60" as="geometry" />
        </mxCell>
        <mxCell id="aL-exAcBVc-EPzbjJFL1-79" value="EmbeddedConnection" style="text;html=1;align=center;verticalAlign=middle;resizable=0;points=[];autosize=1;strokeColor=none;fillColor=none;" parent="1" vertex="1">
          <mxGeometry x="344" y="1340" width="140" height="30" as="geometry" />
        </mxCell>
        <mxCell id="aL-exAcBVc-EPzbjJFL1-80" style="edgeStyle=orthogonalEdgeStyle;rounded=0;orthogonalLoop=1;jettySize=auto;html=1;exitX=0.5;exitY=1;exitDx=0;exitDy=0;entryX=0;entryY=0.5;entryDx=0;entryDy=0;" parent="1" source="aL-exAcBVc-EPzbjJFL1-82" target="aL-exAcBVc-EPzbjJFL1-84" edge="1">
          <mxGeometry relative="1" as="geometry" />
        </mxCell>
        <mxCell id="aL-exAcBVc-EPzbjJFL1-81" style="edgeStyle=orthogonalEdgeStyle;rounded=0;orthogonalLoop=1;jettySize=auto;html=1;fontSize=50;" parent="1" source="aL-exAcBVc-EPzbjJFL1-82" target="aL-exAcBVc-EPzbjJFL1-86" edge="1">
          <mxGeometry relative="1" as="geometry">
            <mxPoint x="450" y="2290" as="targetPoint" />
          </mxGeometry>
        </mxCell>
        <mxCell id="aL-exAcBVc-EPzbjJFL1-82" value="Integration Connector&lt;br&gt;(description of the integration connector)" style="rounded=0;whiteSpace=wrap;html=1;shadow=0;fillColor=#d5e8d4;strokeColor=#82b366;" parent="1" vertex="1">
          <mxGeometry x="240" y="2260" width="150" height="60" as="geometry" />
        </mxCell>
        <mxCell id="aL-exAcBVc-EPzbjJFL1-83" style="edgeStyle=orthogonalEdgeStyle;rounded=0;orthogonalLoop=1;jettySize=auto;html=1;exitX=1;exitY=0.5;exitDx=0;exitDy=0;fillColor=#fff2cc;strokeColor=#d6b656;" parent="1" source="aL-exAcBVc-EPzbjJFL1-84" target="aL-exAcBVc-EPzbjJFL1-90" edge="1">
          <mxGeometry relative="1" as="geometry" />
        </mxCell>
        <mxCell id="aL-exAcBVc-EPzbjJFL1-84" value="Database&lt;br&gt;(asset describing the database to catalog)" style="rounded=0;whiteSpace=wrap;html=1;shadow=0;fillColor=#fff2cc;strokeColor=#d6b656;" parent="1" vertex="1">
          <mxGeometry x="450" y="2370" width="120" height="60" as="geometry" />
        </mxCell>
        <mxCell id="aL-exAcBVc-EPzbjJFL1-85" style="edgeStyle=orthogonalEdgeStyle;rounded=0;orthogonalLoop=1;jettySize=auto;html=1;exitX=1;exitY=0.5;exitDx=0;exitDy=0;fillColor=#dae8fc;strokeColor=#6c8ebf;" parent="1" source="aL-exAcBVc-EPzbjJFL1-86" target="aL-exAcBVc-EPzbjJFL1-87" edge="1">
          <mxGeometry relative="1" as="geometry" />
        </mxCell>
        <mxCell id="aL-exAcBVc-EPzbjJFL1-86" value="Connection &lt;br&gt;(for the integration connector)" style="rounded=0;whiteSpace=wrap;html=1;shadow=0;fillColor=#dae8fc;strokeColor=#6c8ebf;" parent="1" vertex="1">
          <mxGeometry x="450" y="2260" width="120" height="60" as="geometry" />
        </mxCell>
        <mxCell id="aL-exAcBVc-EPzbjJFL1-87" value="Connector Type&lt;br&gt;(for the integration connector)" style="rounded=0;whiteSpace=wrap;html=1;shadow=0;fillColor=#dae8fc;strokeColor=#6c8ebf;" parent="1" vertex="1">
          <mxGeometry x="640" y="2260" width="120" height="60" as="geometry" />
        </mxCell>
        <mxCell id="aL-exAcBVc-EPzbjJFL1-88" style="edgeStyle=orthogonalEdgeStyle;rounded=0;orthogonalLoop=1;jettySize=auto;html=1;exitX=1;exitY=0.25;exitDx=0;exitDy=0;fillColor=#fff2cc;strokeColor=#d6b656;" parent="1" source="aL-exAcBVc-EPzbjJFL1-90" target="aL-exAcBVc-EPzbjJFL1-91" edge="1">
          <mxGeometry relative="1" as="geometry" />
        </mxCell>
        <mxCell id="aL-exAcBVc-EPzbjJFL1-89" style="edgeStyle=orthogonalEdgeStyle;rounded=0;orthogonalLoop=1;jettySize=auto;html=1;exitX=1;exitY=0.75;exitDx=0;exitDy=0;entryX=0;entryY=0.5;entryDx=0;entryDy=0;fillColor=#fff2cc;strokeColor=#d6b656;" parent="1" source="aL-exAcBVc-EPzbjJFL1-90" target="aL-exAcBVc-EPzbjJFL1-92" edge="1">
          <mxGeometry relative="1" as="geometry" />
        </mxCell>
        <mxCell id="aL-exAcBVc-EPzbjJFL1-90" value="VirtualConnection (connection for the database)&amp;nbsp;" style="rounded=0;whiteSpace=wrap;html=1;shadow=0;fillColor=#fff2cc;strokeColor=#d6b656;" parent="1" vertex="1">
          <mxGeometry x="640" y="2370" width="120" height="60" as="geometry" />
        </mxCell>
        <mxCell id="aL-exAcBVc-EPzbjJFL1-91" value="Connector Type&lt;br&gt;(to access a database)" style="rounded=0;whiteSpace=wrap;html=1;shadow=0;fillColor=#fff2cc;strokeColor=#d6b656;" parent="1" vertex="1">
          <mxGeometry x="840" y="2355" width="120" height="60" as="geometry" />
        </mxCell>
        <mxCell id="aL-exAcBVc-EPzbjJFL1-92" value="Endpoint&lt;br&gt;(url for database)" style="rounded=0;whiteSpace=wrap;html=1;shadow=0;fillColor=#fff2cc;strokeColor=#d6b656;" parent="1" vertex="1">
          <mxGeometry x="840" y="2435" width="120" height="60" as="geometry" />
        </mxCell>
        <mxCell id="aL-exAcBVc-EPzbjJFL1-93" value="Catalog Target" style="text;html=1;align=center;verticalAlign=middle;resizable=0;points=[];autosize=1;strokeColor=none;fillColor=none;" parent="1" vertex="1">
          <mxGeometry x="330" y="2370" width="100" height="30" as="geometry" />
        </mxCell>
        <mxCell id="aL-exAcBVc-EPzbjJFL1-94" style="edgeStyle=orthogonalEdgeStyle;rounded=0;orthogonalLoop=1;jettySize=auto;html=1;exitX=0.5;exitY=1;exitDx=0;exitDy=0;entryX=0;entryY=0.5;entryDx=0;entryDy=0;fillColor=#fff2cc;strokeColor=#d6b656;" parent="1" source="aL-exAcBVc-EPzbjJFL1-90" target="aL-exAcBVc-EPzbjJFL1-97" edge="1">
          <mxGeometry relative="1" as="geometry">
            <mxPoint x="770" y="2450" as="sourcePoint" />
          </mxGeometry>
        </mxCell>
        <mxCell id="aL-exAcBVc-EPzbjJFL1-95" style="edgeStyle=orthogonalEdgeStyle;rounded=0;orthogonalLoop=1;jettySize=auto;html=1;exitX=1;exitY=0.25;exitDx=0;exitDy=0;fillColor=#fff2cc;strokeColor=#d6b656;" parent="1" source="aL-exAcBVc-EPzbjJFL1-97" target="aL-exAcBVc-EPzbjJFL1-98" edge="1">
          <mxGeometry relative="1" as="geometry" />
        </mxCell>
        <mxCell id="aL-exAcBVc-EPzbjJFL1-96" style="edgeStyle=orthogonalEdgeStyle;rounded=0;orthogonalLoop=1;jettySize=auto;html=1;exitX=1;exitY=0.75;exitDx=0;exitDy=0;entryX=0;entryY=0.5;entryDx=0;entryDy=0;fillColor=#fff2cc;strokeColor=#d6b656;" parent="1" source="aL-exAcBVc-EPzbjJFL1-97" target="aL-exAcBVc-EPzbjJFL1-99" edge="1">
          <mxGeometry relative="1" as="geometry" />
        </mxCell>
        <mxCell id="aL-exAcBVc-EPzbjJFL1-97" value="Connection&lt;br&gt;(for the secret store)" style="rounded=0;whiteSpace=wrap;html=1;shadow=0;fillColor=#fff2cc;strokeColor=#d6b656;" parent="1" vertex="1">
          <mxGeometry x="840" y="2510" width="120" height="60" as="geometry" />
        </mxCell>
        <mxCell id="aL-exAcBVc-EPzbjJFL1-98" value="Connector Type&lt;br&gt;(for the secret store)" style="rounded=0;whiteSpace=wrap;html=1;shadow=0;fillColor=#fff2cc;strokeColor=#d6b656;" parent="1" vertex="1">
          <mxGeometry x="1030" y="2495" width="120" height="60" as="geometry" />
        </mxCell>
        <mxCell id="aL-exAcBVc-EPzbjJFL1-99" value="Endpoint&lt;br&gt;(for the secret store)" style="rounded=0;whiteSpace=wrap;html=1;shadow=0;fillColor=#fff2cc;strokeColor=#d6b656;" parent="1" vertex="1">
          <mxGeometry x="1030" y="2575" width="120" height="60" as="geometry" />
        </mxCell>
        <mxCell id="aL-exAcBVc-EPzbjJFL1-100" value="EmbeddedConnection" style="text;html=1;align=center;verticalAlign=middle;resizable=0;points=[];autosize=1;strokeColor=none;fillColor=none;" parent="1" vertex="1">
          <mxGeometry x="700" y="2510" width="140" height="30" as="geometry" />
        </mxCell>
        <mxCell id="aL-exAcBVc-EPzbjJFL1-101" style="edgeStyle=orthogonalEdgeStyle;rounded=0;orthogonalLoop=1;jettySize=auto;html=1;exitX=1;exitY=0.5;exitDx=0;exitDy=0;entryX=0.25;entryY=0;entryDx=0;entryDy=0;" parent="1" source="aL-exAcBVc-EPzbjJFL1-103" target="aL-exAcBVc-EPzbjJFL1-104" edge="1">
          <mxGeometry relative="1" as="geometry" />
        </mxCell>
        <mxCell id="aL-exAcBVc-EPzbjJFL1-103" value="Integration Connector&lt;br&gt;to identify schemas within&lt;br&gt;a database asset" style="rounded=0;whiteSpace=wrap;html=1;shadow=0;fillColor=#d5e8d4;strokeColor=#82b366;" parent="1" vertex="1">
          <mxGeometry x="284.88" y="2795" width="160" height="60" as="geometry" />
        </mxCell>
        <mxCell id="aL-exAcBVc-EPzbjJFL1-121" style="edgeStyle=orthogonalEdgeStyle;rounded=0;orthogonalLoop=1;jettySize=auto;html=1;exitX=1;exitY=0.5;exitDx=0;exitDy=0;entryX=0;entryY=0.5;entryDx=0;entryDy=0;" parent="1" source="aL-exAcBVc-EPzbjJFL1-104" target="aL-exAcBVc-EPzbjJFL1-120" edge="1">
          <mxGeometry relative="1" as="geometry" />
        </mxCell>
        <mxCell id="aL-exAcBVc-EPzbjJFL1-124" style="edgeStyle=orthogonalEdgeStyle;rounded=0;orthogonalLoop=1;jettySize=auto;html=1;exitX=0.75;exitY=1;exitDx=0;exitDy=0;entryX=0;entryY=0.5;entryDx=0;entryDy=0;" parent="1" source="aL-exAcBVc-EPzbjJFL1-104" target="aL-exAcBVc-EPzbjJFL1-123" edge="1">
          <mxGeometry relative="1" as="geometry" />
        </mxCell>
        <mxCell id="aL-exAcBVc-EPzbjJFL1-104" value="Database&lt;br&gt;(asset describing the database to catalog)" style="rounded=0;whiteSpace=wrap;html=1;shadow=0;fillColor=#fff2cc;strokeColor=#d6b656;" parent="1" vertex="1">
          <mxGeometry x="559.88" y="2930" width="120" height="60" as="geometry" />
        </mxCell>
        <mxCell id="aL-exAcBVc-EPzbjJFL1-106" value="Catalog Target" style="text;html=1;align=center;verticalAlign=middle;resizable=0;points=[];autosize=1;strokeColor=none;fillColor=none;" parent="1" vertex="1">
          <mxGeometry x="453.88" y="2800" width="100" height="30" as="geometry" />
        </mxCell>
        <mxCell id="aL-exAcBVc-EPzbjJFL1-107" style="edgeStyle=orthogonalEdgeStyle;rounded=0;orthogonalLoop=1;jettySize=auto;html=1;exitX=0.5;exitY=0;exitDx=0;exitDy=0;" parent="1" source="aL-exAcBVc-EPzbjJFL1-104" target="aL-exAcBVc-EPzbjJFL1-108" edge="1">
          <mxGeometry relative="1" as="geometry">
            <mxPoint x="679.88" y="2950" as="sourcePoint" />
            <Array as="points">
              <mxPoint x="619.88" y="2800" />
            </Array>
          </mxGeometry>
        </mxCell>
        <mxCell id="aL-exAcBVc-EPzbjJFL1-108" value="Connection (connection for the database)&amp;nbsp;" style="rounded=0;whiteSpace=wrap;html=1;shadow=0;fillColor=#dae8fc;strokeColor=#6c8ebf;" parent="1" vertex="1">
          <mxGeometry x="834.88" y="2770" width="120" height="60" as="geometry" />
        </mxCell>
        <mxCell id="aL-exAcBVc-EPzbjJFL1-126" style="edgeStyle=orthogonalEdgeStyle;rounded=0;orthogonalLoop=1;jettySize=auto;html=1;exitX=0;exitY=0.5;exitDx=0;exitDy=0;entryX=0.75;entryY=0;entryDx=0;entryDy=0;" parent="1" source="aL-exAcBVc-EPzbjJFL1-110" target="aL-exAcBVc-EPzbjJFL1-104" edge="1">
          <mxGeometry relative="1" as="geometry" />
        </mxCell>
        <mxCell id="aL-exAcBVc-EPzbjJFL1-110" value="Database Schema&lt;br&gt;(asset describing the database schema)" style="rounded=0;whiteSpace=wrap;html=1;shadow=0;fillColor=#fff2cc;strokeColor=#d6b656;" parent="1" vertex="1">
          <mxGeometry x="834.88" y="2850" width="120" height="60" as="geometry" />
        </mxCell>
        <mxCell id="aL-exAcBVc-EPzbjJFL1-114" style="edgeStyle=orthogonalEdgeStyle;rounded=0;orthogonalLoop=1;jettySize=auto;html=1;entryX=0;entryY=0.5;entryDx=0;entryDy=0;" parent="1" source="aL-exAcBVc-EPzbjJFL1-113" target="aL-exAcBVc-EPzbjJFL1-104" edge="1">
          <mxGeometry relative="1" as="geometry" />
        </mxCell>
        <mxCell id="aL-exAcBVc-EPzbjJFL1-113" value="Engine Action to add profile of database to Discovery Analysis Report" style="rounded=0;whiteSpace=wrap;html=1;fillColor=#d5e8d4;strokeColor=#82b366;" parent="1" vertex="1">
          <mxGeometry x="284.88" y="2930" width="160" height="60" as="geometry" />
        </mxCell>
        <mxCell id="aL-exAcBVc-EPzbjJFL1-115" value="TargetForAction" style="text;html=1;align=center;verticalAlign=middle;resizable=0;points=[];autosize=1;strokeColor=none;fillColor=none;" parent="1" vertex="1">
          <mxGeometry x="448.88" y="2930" width="110" height="30" as="geometry" />
        </mxCell>
        <mxCell id="aL-exAcBVc-EPzbjJFL1-116" style="edgeStyle=orthogonalEdgeStyle;rounded=0;orthogonalLoop=1;jettySize=auto;html=1;entryX=0.25;entryY=1;entryDx=0;entryDy=0;" parent="1" source="aL-exAcBVc-EPzbjJFL1-117" target="aL-exAcBVc-EPzbjJFL1-104" edge="1">
          <mxGeometry relative="1" as="geometry">
            <mxPoint x="609.88" y="3100" as="targetPoint" />
          </mxGeometry>
        </mxCell>
        <mxCell id="aL-exAcBVc-EPzbjJFL1-117" value="Engine Action to identify lineage origin for database" style="rounded=0;whiteSpace=wrap;html=1;fillColor=#d5e8d4;strokeColor=#82b366;" parent="1" vertex="1">
          <mxGeometry x="285.88" y="3020" width="160" height="60" as="geometry" />
        </mxCell>
        <mxCell id="aL-exAcBVc-EPzbjJFL1-118" value="TargetForAction" style="text;html=1;align=center;verticalAlign=middle;resizable=0;points=[];autosize=1;strokeColor=none;fillColor=none;" parent="1" vertex="1">
          <mxGeometry x="449.88" y="3020" width="110" height="30" as="geometry" />
        </mxCell>
        <mxCell id="aL-exAcBVc-EPzbjJFL1-120" value="Discovery Analysis Report" style="rounded=0;whiteSpace=wrap;html=1;fillColor=#ffe6cc;strokeColor=#d79b00;" parent="1" vertex="1">
          <mxGeometry x="834.88" y="2930" width="120" height="60" as="geometry" />
        </mxCell>
        <mxCell id="aL-exAcBVc-EPzbjJFL1-123" value="Application that is Ultimate Source of database" style="rounded=0;whiteSpace=wrap;html=1;fillColor=#fff2cc;strokeColor=#d6b656;" parent="1" vertex="1">
          <mxGeometry x="835.13" y="3020" width="120" height="60" as="geometry" />
        </mxCell>
        <mxCell id="aL-exAcBVc-EPzbjJFL1-125" value="UltimateSource" style="text;html=1;align=center;verticalAlign=middle;resizable=0;points=[];autosize=1;strokeColor=none;fillColor=none;" parent="1" vertex="1">
          <mxGeometry x="725.13" y="3020" width="110" height="30" as="geometry" />
        </mxCell>
        <mxCell id="aL-exAcBVc-EPzbjJFL1-127" value="" style="shape=curlyBracket;whiteSpace=wrap;html=1;rounded=1;flipH=1;labelPosition=right;verticalLabelPosition=middle;align=left;verticalAlign=middle;rotation=90;" parent="1" vertex="1">
          <mxGeometry x="419.88" y="2985" width="20" height="290" as="geometry" />
        </mxCell>
        <mxCell id="aL-exAcBVc-EPzbjJFL1-128" value="Agents acting on the database resource" style="text;html=1;align=center;verticalAlign=middle;resizable=0;points=[];autosize=1;strokeColor=none;fillColor=none;" parent="1" vertex="1">
          <mxGeometry x="304.88" y="3150" width="240" height="30" as="geometry" />
        </mxCell>
        <mxCell id="aL-exAcBVc-EPzbjJFL1-129" value="" style="shape=curlyBracket;whiteSpace=wrap;html=1;rounded=1;flipH=1;labelPosition=right;verticalLabelPosition=middle;align=left;verticalAlign=middle;rotation=90;" parent="1" vertex="1">
          <mxGeometry x="785.13" y="2978.75" width="20" height="302.5" as="geometry" />
        </mxCell>
        <mxCell id="aL-exAcBVc-EPzbjJFL1-130" value="Information being gathered about the database resource" style="text;html=1;align=center;verticalAlign=middle;resizable=0;points=[];autosize=1;strokeColor=none;fillColor=none;" parent="1" vertex="1">
          <mxGeometry x="635.13" y="3150" width="320" height="30" as="geometry" />
        </mxCell>
        <mxCell id="aL-exAcBVc-EPzbjJFL1-131" value="DataContentForDataSet" style="text;html=1;align=center;verticalAlign=middle;resizable=0;points=[];autosize=1;strokeColor=none;fillColor=none;" parent="1" vertex="1">
          <mxGeometry x="684.88" y="2850" width="150" height="30" as="geometry" />
        </mxCell>
        <mxCell id="aL-exAcBVc-EPzbjJFL1-132" value="AssetDiscoveryReport" style="text;html=1;align=center;verticalAlign=middle;resizable=0;points=[];autosize=1;strokeColor=none;fillColor=none;" parent="1" vertex="1">
          <mxGeometry x="694.88" y="2930" width="140" height="30" as="geometry" />
        </mxCell>
        <mxCell id="aL-exAcBVc-EPzbjJFL1-133" value="ConnectionForAsset" style="text;html=1;align=center;verticalAlign=middle;resizable=0;points=[];autosize=1;strokeColor=none;fillColor=none;" parent="1" vertex="1">
          <mxGeometry x="704.88" y="2770" width="130" height="30" as="geometry" />
        </mxCell>
        <mxCell id="aL-exAcBVc-EPzbjJFL1-134" value="ConnectionToAsset" style="text;html=1;align=center;verticalAlign=middle;resizable=0;points=[];autosize=1;strokeColor=none;fillColor=none;" parent="1" vertex="1">
          <mxGeometry x="470" y="105" width="130" height="30" as="geometry" />
        </mxCell>
        <mxCell id="aL-exAcBVc-EPzbjJFL1-135" value="Catalog Target" style="text;html=1;align=center;verticalAlign=middle;resizable=0;points=[];autosize=1;strokeColor=none;fillColor=none;" parent="1" vertex="1">
          <mxGeometry x="315.88" y="1760" width="100" height="30" as="geometry" />
        </mxCell>
        <mxCell id="aL-exAcBVc-EPzbjJFL1-136" style="edgeStyle=orthogonalEdgeStyle;rounded=0;orthogonalLoop=1;jettySize=auto;html=1;fontSize=50;" parent="1" source="aL-exAcBVc-EPzbjJFL1-137" target="aL-exAcBVc-EPzbjJFL1-139" edge="1">
          <mxGeometry relative="1" as="geometry">
            <mxPoint x="440" y="1670" as="targetPoint" />
          </mxGeometry>
        </mxCell>
        <mxCell id="aL-exAcBVc-EPzbjJFL1-137" value="Integration Connector&lt;br&gt;(description of the integration connector)" style="rounded=0;whiteSpace=wrap;html=1;shadow=0;fillColor=#d5e8d4;strokeColor=#82b366;" parent="1" vertex="1">
          <mxGeometry x="230" y="1640" width="150" height="60" as="geometry" />
        </mxCell>
        <mxCell id="aL-exAcBVc-EPzbjJFL1-138" style="edgeStyle=orthogonalEdgeStyle;rounded=0;orthogonalLoop=1;jettySize=auto;html=1;exitX=1;exitY=0.5;exitDx=0;exitDy=0;fillColor=#dae8fc;strokeColor=#6c8ebf;" parent="1" source="aL-exAcBVc-EPzbjJFL1-139" target="aL-exAcBVc-EPzbjJFL1-140" edge="1">
          <mxGeometry relative="1" as="geometry" />
        </mxCell>
        <mxCell id="aL-exAcBVc-EPzbjJFL1-139" value="Connection &lt;br&gt;(for the integration connector)" style="rounded=0;whiteSpace=wrap;html=1;shadow=0;fillColor=#dae8fc;strokeColor=#6c8ebf;" parent="1" vertex="1">
          <mxGeometry x="440" y="1640" width="120" height="60" as="geometry" />
        </mxCell>
        <mxCell id="aL-exAcBVc-EPzbjJFL1-140" value="Connector Type&lt;br&gt;(for the integration connector)" style="rounded=0;whiteSpace=wrap;html=1;shadow=0;fillColor=#dae8fc;strokeColor=#6c8ebf;" parent="1" vertex="1">
          <mxGeometry x="630" y="1640" width="120" height="60" as="geometry" />
        </mxCell>
      </root>
    </mxGraphModel>
  </diagram>
  <diagram id="fSanAvHtAMhTCUE76OQX" name="event-structures">
    <mxGraphModel dx="2069" dy="820" grid="1" gridSize="10" guides="1" tooltips="1" connect="1" arrows="1" fold="1" page="1" pageScale="1" pageWidth="827" pageHeight="1169" math="0" shadow="0">
      <root>
        <mxCell id="0" />
        <mxCell id="1" parent="0" />
        <mxCell id="Zu0tRxjtM2TUp6tSM8dn-2" value="GovernanceServerEvent" style="swimlane;whiteSpace=wrap;html=1;fillColor=#d5e8d4;strokeColor=#82b366;" vertex="1" parent="1">
          <mxGeometry x="310" y="150" width="260" height="80" as="geometry" />
        </mxCell>
        <mxCell id="Zu0tRxjtM2TUp6tSM8dn-4" value="eventVersionId : Long&lt;br&gt;eventType : GovernanceServerEventType" style="text;html=1;align=left;verticalAlign=middle;resizable=0;points=[];autosize=1;strokeColor=none;fillColor=none;" vertex="1" parent="Zu0tRxjtM2TUp6tSM8dn-2">
          <mxGeometry x="10" y="30" width="250" height="40" as="geometry" />
        </mxCell>
        <mxCell id="Zu0tRxjtM2TUp6tSM8dn-10" style="edgeStyle=orthogonalEdgeStyle;rounded=0;orthogonalLoop=1;jettySize=auto;html=1;exitX=0.5;exitY=0;exitDx=0;exitDy=0;entryX=0.5;entryY=1;entryDx=0;entryDy=0;endArrow=block;endFill=0;endSize=18;" edge="1" parent="1" source="Zu0tRxjtM2TUp6tSM8dn-5" target="Zu0tRxjtM2TUp6tSM8dn-2">
          <mxGeometry relative="1" as="geometry" />
        </mxCell>
        <mxCell id="Zu0tRxjtM2TUp6tSM8dn-5" value="GovernanceEngineConfigurationEvent" style="swimlane;whiteSpace=wrap;html=1;fillColor=#d5e8d4;strokeColor=#82b366;" vertex="1" parent="1">
          <mxGeometry x="100" y="310" width="280" height="90" as="geometry" />
        </mxCell>
        <mxCell id="Zu0tRxjtM2TUp6tSM8dn-6" value="governanceEngineGUID : String&lt;br&gt;governanceEngineName : String" style="text;html=1;align=left;verticalAlign=middle;resizable=0;points=[];autosize=1;strokeColor=none;fillColor=none;" vertex="1" parent="Zu0tRxjtM2TUp6tSM8dn-5">
          <mxGeometry x="10" y="30" width="200" height="40" as="geometry" />
        </mxCell>
        <mxCell id="Zu0tRxjtM2TUp6tSM8dn-7" value="GovernanceServiceConfigurationEvent" style="swimlane;whiteSpace=wrap;html=1;fillColor=#d5e8d4;strokeColor=#82b366;" vertex="1" parent="1">
          <mxGeometry x="-110" y="490" width="280" height="110" as="geometry" />
        </mxCell>
        <mxCell id="Zu0tRxjtM2TUp6tSM8dn-8" value="registeredGovernanceServiceGUID : String&lt;br&gt;requestType : String&lt;br&gt;requestParameters : Map&amp;lt;String, String&amp;gt;" style="text;html=1;align=left;verticalAlign=middle;resizable=0;points=[];autosize=1;strokeColor=none;fillColor=none;" vertex="1" parent="Zu0tRxjtM2TUp6tSM8dn-7">
          <mxGeometry x="10" y="35" width="250" height="60" as="geometry" />
        </mxCell>
        <mxCell id="Zu0tRxjtM2TUp6tSM8dn-11" style="edgeStyle=orthogonalEdgeStyle;rounded=0;orthogonalLoop=1;jettySize=auto;html=1;exitX=0.5;exitY=0;exitDx=0;exitDy=0;entryX=0.5;entryY=1;entryDx=0;entryDy=0;endArrow=block;endFill=0;endSize=18;" edge="1" parent="1" source="Zu0tRxjtM2TUp6tSM8dn-7" target="Zu0tRxjtM2TUp6tSM8dn-5">
          <mxGeometry relative="1" as="geometry">
            <mxPoint x="260" y="320" as="sourcePoint" />
            <mxPoint x="410" y="190" as="targetPoint" />
          </mxGeometry>
        </mxCell>
        <mxCell id="Zu0tRxjtM2TUp6tSM8dn-12" value="IntegrationGroupConfigurationEvent" style="swimlane;whiteSpace=wrap;html=1;fillColor=#d5e8d4;strokeColor=#82b366;" vertex="1" parent="1">
          <mxGeometry x="400" y="310" width="286" height="70" as="geometry" />
        </mxCell>
        <mxCell id="Zu0tRxjtM2TUp6tSM8dn-13" value="integrationGroupGUID : String&lt;br&gt;integrationGroupName : String" style="text;html=1;align=left;verticalAlign=middle;resizable=0;points=[];autosize=1;strokeColor=none;fillColor=none;" vertex="1" parent="Zu0tRxjtM2TUp6tSM8dn-12">
          <mxGeometry x="10" y="25" width="190" height="40" as="geometry" />
        </mxCell>
        <mxCell id="Zu0tRxjtM2TUp6tSM8dn-14" value="IntegrationConnectorConfigurationEvent" style="swimlane;whiteSpace=wrap;html=1;fillColor=#d5e8d4;strokeColor=#82b366;" vertex="1" parent="1">
          <mxGeometry x="700" y="310" width="286" height="90" as="geometry" />
        </mxCell>
        <mxCell id="Zu0tRxjtM2TUp6tSM8dn-15" value="integrationConnectorGUID : String&lt;br&gt;integrationConnectorName : String" style="text;html=1;align=left;verticalAlign=middle;resizable=0;points=[];autosize=1;strokeColor=none;fillColor=none;" vertex="1" parent="Zu0tRxjtM2TUp6tSM8dn-14">
          <mxGeometry x="10" y="35" width="210" height="40" as="geometry" />
        </mxCell>
        <mxCell id="Zu0tRxjtM2TUp6tSM8dn-16" style="edgeStyle=orthogonalEdgeStyle;rounded=0;orthogonalLoop=1;jettySize=auto;html=1;exitX=0.5;exitY=0;exitDx=0;exitDy=0;entryX=0.5;entryY=1;entryDx=0;entryDy=0;endArrow=block;endFill=0;endSize=18;" edge="1" parent="1" source="Zu0tRxjtM2TUp6tSM8dn-14" target="Zu0tRxjtM2TUp6tSM8dn-2">
          <mxGeometry relative="1" as="geometry">
            <mxPoint x="630" y="320" as="sourcePoint" />
            <mxPoint x="780" y="190" as="targetPoint" />
          </mxGeometry>
        </mxCell>
        <mxCell id="Zu0tRxjtM2TUp6tSM8dn-17" style="edgeStyle=orthogonalEdgeStyle;rounded=0;orthogonalLoop=1;jettySize=auto;html=1;exitX=0.5;exitY=0;exitDx=0;exitDy=0;endArrow=block;endFill=0;endSize=18;entryX=0.5;entryY=1;entryDx=0;entryDy=0;" edge="1" parent="1" source="Zu0tRxjtM2TUp6tSM8dn-12" target="Zu0tRxjtM2TUp6tSM8dn-2">
          <mxGeometry relative="1" as="geometry">
            <mxPoint x="240" y="370" as="sourcePoint" />
            <mxPoint x="470" y="260" as="targetPoint" />
          </mxGeometry>
        </mxCell>
        <mxCell id="Zu0tRxjtM2TUp6tSM8dn-18" value="EngineActionEvent" style="swimlane;whiteSpace=wrap;html=1;fillColor=#d5e8d4;strokeColor=#82b366;" vertex="1" parent="1">
          <mxGeometry x="210" y="490" width="210" height="70" as="geometry" />
        </mxCell>
        <mxCell id="Zu0tRxjtM2TUp6tSM8dn-19" value="engineActionGUID : String&lt;br&gt;" style="text;html=1;align=left;verticalAlign=middle;resizable=0;points=[];autosize=1;strokeColor=none;fillColor=none;" vertex="1" parent="Zu0tRxjtM2TUp6tSM8dn-18">
          <mxGeometry x="10" y="30" width="160" height="30" as="geometry" />
        </mxCell>
        <mxCell id="Zu0tRxjtM2TUp6tSM8dn-20" style="edgeStyle=orthogonalEdgeStyle;rounded=0;orthogonalLoop=1;jettySize=auto;html=1;exitX=0.5;exitY=0;exitDx=0;exitDy=0;endArrow=block;endFill=0;endSize=18;entryX=0.5;entryY=1;entryDx=0;entryDy=0;" edge="1" parent="1" source="Zu0tRxjtM2TUp6tSM8dn-18" target="Zu0tRxjtM2TUp6tSM8dn-5">
          <mxGeometry relative="1" as="geometry">
            <mxPoint x="480" y="500" as="sourcePoint" />
            <mxPoint x="290" y="420" as="targetPoint" />
          </mxGeometry>
        </mxCell>
      </root>
    </mxGraphModel>
  </diagram>
</mxfile>
